<?xml version="1.0" encoding="UTF-8"?>
<svg width="1000px" height="200px" viewBox="0 0 1000 200" version="1.1" xmlns="http://www.w3.org/2000/svg" xmlns:xlink="http://www.w3.org/1999/xlink">
    <!-- Generator: Sketch 51.3 (57544) - http://www.bohemiancoding.com/sketch -->
    <title>Policy-Mogul-Final_BLUe(1)</title>
    <desc>Created with Sketch.</desc>
    <defs></defs>
    <g id="Page-1" stroke="none" stroke-width="1" fill="none" fill-rule="evenodd">
        <g id="Policy-Mogul-Final_BLUe(1)" fill="#F2A805" fill-rule="nonzero">
            <path d="M36.5835223,152.078609 L0.680272109,152.078609 L0.680272109,14.0589569 L57.8231293,14.0589569 C73.3182162,14.0589569 85.1851852,18.0650038 93.4240363,26.1526833 C101.662887,34.2403628 105.820106,45.5782313 105.820106,60.2418745 C105.820106,74.9055178 101.662887,86.2433862 93.4240363,94.3310658 C85.1851852,102.418745 73.3182162,106.424792 57.8231293,106.424792 L36.5835223,106.424792 L36.5835223,152.078609 Z M36.5835223,77.3998488 L48.4504913,77.3998488 C61.6024187,77.3998488 68.2539683,71.6553288 68.2539683,60.1662887 C68.2539683,48.6772487 61.6780045,42.9327286 48.4504913,42.9327286 L36.5835223,42.9327286 L36.5835223,77.3998488 Z" id="Shape"></path>
            <path d="M103.703704,104.30839 C103.703704,97.3544974 105.139834,90.8541194 107.936508,84.8072562 C110.733182,78.760393 114.663643,73.5449735 119.652305,69.0854119 C124.640967,64.6258503 130.612245,61.148904 137.490552,58.5789872 C144.368859,56.0090703 151.927438,54.7241119 160.090703,54.7241119 C168.178382,54.7241119 175.661376,56.0090703 182.539683,58.5034014 C189.417989,60.9977324 195.389267,64.4746788 200.453515,68.9342404 C205.517763,73.393802 209.448224,78.6848073 212.244898,84.882842 C215.041572,91.0808768 216.477702,97.8835979 216.477702,105.291005 C216.477702,112.773998 215.041572,119.57672 212.169312,125.699169 C209.297052,131.897203 205.366591,137.188209 200.377929,141.64777 C195.389267,146.107332 189.342404,149.584278 182.312925,152.003023 C175.283447,154.421769 167.724868,155.631141 159.486017,155.631141 C151.398337,155.631141 143.99093,154.421769 137.112623,152.003023 C130.309902,149.584278 124.41421,146.107332 119.425548,141.572184 C114.512472,137.037037 110.582011,131.670446 107.785336,125.396825 C105.139834,118.972033 103.703704,112.018141 103.703704,104.30839 Z M138.699924,104.686319 C138.699924,107.860922 139.304611,110.733182 140.438398,113.378685 C141.572184,116.024187 143.159486,118.291761 145.049131,120.256992 C146.938776,122.222222 149.206349,123.733938 151.851852,124.867725 C154.497354,126.001512 157.218443,126.530612 160.166289,126.530612 C163.114135,126.530612 165.835223,126.001512 168.480726,124.867725 C171.126228,123.733938 173.393802,122.222222 175.283447,120.256992 C177.173091,118.291761 178.684807,116.024187 179.89418,113.378685 C181.027967,110.733182 181.632653,107.936508 181.632653,104.837491 C181.632653,101.889645 181.027967,99.1685563 179.89418,96.5230537 C178.760393,93.877551 177.173091,91.6099773 175.283447,89.6447468 C173.393802,87.6795163 171.126228,86.1678005 168.480726,85.0340136 C165.835223,83.9002268 163.114135,83.3711262 160.166289,83.3711262 C157.218443,83.3711262 154.421769,83.9002268 151.851852,85.0340136 C149.206349,86.1678005 146.938776,87.6795163 145.049131,89.6447468 C143.159486,91.6099773 141.64777,93.877551 140.438398,96.4474679 C139.229025,99.0173847 138.699924,101.738473 138.699924,104.686319 Z" id="Shape"></path>
            <polygon id="Shape" points="257.4452 0.0755857899 257.4452 152.078609 224.263039 152.078609 224.263039 0.0755857899"></polygon>
            <path d="M263.038549,29.1761149 C263.038549,26.606198 263.492063,24.1874528 264.474679,21.9198791 C265.457294,19.6523054 266.817838,17.6870748 268.480726,15.9486017 C270.219199,14.2101285 272.184429,12.9251701 274.452003,11.9425548 C276.719577,10.9599395 279.138322,10.5064248 281.708239,10.5064248 C284.278156,10.5064248 286.696901,10.9599395 288.964475,11.9425548 C291.232048,12.9251701 293.197279,14.2857143 294.935752,15.9486017 C296.674225,17.6870748 297.959184,19.6523054 298.941799,21.9198791 C299.924414,24.1874528 300.377929,26.606198 300.377929,29.1761149 C300.377929,31.7460317 299.924414,34.164777 298.941799,36.4323507 C297.959184,38.6999244 296.598639,40.665155 294.935752,42.4036281 C293.197279,44.1421013 291.232048,45.4270597 288.964475,46.409675 C286.696901,47.3922902 284.278156,47.845805 281.708239,47.845805 C279.138322,47.845805 276.719577,47.3922902 274.452003,46.409675 C272.184429,45.4270597 270.219199,44.0665155 268.480726,42.4036281 C266.742252,40.665155 265.457294,38.6999244 264.474679,36.4323507 C263.567649,34.0891912 263.038549,31.670446 263.038549,29.1761149 Z" id="Shape"></path>
            <rect id="Rectangle-path" x="265.230537" y="58.2010582" width="33.1821618" height="93.9531368"></rect>
            <polygon id="Shape" points="432.350718 139.304611 386.923658 58.2010582 425.396825 58.2010582 450.491308 106.349206 474.829932 58.2010582 512.92517 58.2010582 437.263794 199.319728 400.075586 199.319728"></polygon>
            <path d="M621.390779,104.30839 C621.390779,97.3544974 622.826909,90.8541194 625.623583,84.8072562 C628.420257,78.760393 632.350718,73.5449735 637.33938,69.0854119 C642.328042,64.6258503 648.29932,61.148904 655.177627,58.5789872 C662.055933,56.0090703 669.614512,54.7241119 677.777778,54.7241119 C685.865457,54.7241119 693.34845,56.0090703 700.226757,58.5034014 C707.105064,60.9977324 713.076342,64.4746788 718.14059,68.9342404 C723.204837,73.393802 727.135299,78.6848073 729.931973,84.882842 C732.728647,91.0808768 734.164777,97.8835979 734.164777,105.291005 C734.164777,112.773998 732.728647,119.57672 729.856387,125.699169 C726.984127,131.897203 723.053666,137.188209 718.065004,141.64777 C713.076342,146.107332 707.029478,149.584278 700,152.003023 C692.970522,154.421769 685.411943,155.631141 677.173091,155.631141 C669.085412,155.631141 661.678005,154.421769 654.799698,152.003023 C647.996977,149.584278 642.101285,146.107332 637.112623,141.572184 C632.199546,137.037037 628.269085,131.670446 625.472411,125.396825 C622.826909,118.972033 621.390779,112.018141 621.390779,104.30839 Z M656.386999,104.686319 C656.386999,107.860922 656.991686,110.733182 658.125472,113.378685 C659.259259,116.024187 660.846561,118.291761 662.736206,120.256992 C664.62585,122.222222 666.893424,123.733938 669.538927,124.867725 C672.184429,126.001512 674.905518,126.530612 677.853364,126.530612 C680.801209,126.530612 683.522298,126.001512 686.1678,124.867725 C688.813303,123.733938 691.080877,122.222222 692.970522,120.256992 C694.860166,118.291761 696.371882,116.024187 697.581255,113.378685 C698.715042,110.733182 699.319728,107.936508 699.319728,104.837491 C699.319728,101.889645 698.715042,99.1685563 697.581255,96.5230537 C696.447468,93.877551 694.860166,91.6099773 692.970522,89.6447468 C691.080877,87.6795163 688.813303,86.1678005 686.1678,85.0340136 C683.522298,83.9002268 680.801209,83.3711262 677.853364,83.3711262 C674.905518,83.3711262 672.108844,83.9002268 669.538927,85.0340136 C666.893424,86.1678005 664.62585,87.6795163 662.736206,89.6447468 C660.846561,91.6099773 659.334845,93.877551 658.125472,96.4474679 C656.991686,99.0173847 656.386999,101.738473 656.386999,104.686319 Z" id="Shape"></path>
            <path d="M850.793651,58.2010582 L850.793651,145.729403 C850.793651,150.944822 850.491308,155.706727 849.886621,159.863946 C849.281935,164.021164 848.450491,167.649282 847.316704,170.823885 C845.880574,174.829932 843.537415,178.609221 840.438398,182.086168 C837.33938,185.563114 833.560091,188.586546 829.176115,191.156463 C824.792139,193.726379 819.803477,195.767196 814.285714,197.203326 C808.692366,198.639456 802.721088,199.395314 796.220711,199.395314 C788.888889,199.395314 782.161754,198.488284 776.039305,196.674225 C769.916856,194.860166 764.62585,192.290249 760.015117,189.04006 C755.404384,185.789872 751.70068,182.010582 748.752834,177.702192 C745.804989,173.393802 743.839758,168.631897 742.857143,163.492063 L780.196523,163.492063 C782.539683,169.690098 787.755102,172.864701 795.918367,172.864701 C802.87226,172.864701 808.238851,170.899471 811.942555,166.96901 C815.646259,163.038549 817.535903,157.596372 817.535903,150.642479 L817.535903,141.64777 C815.117158,143.99093 812.773998,145.880574 810.506425,147.39229 C808.238851,148.904006 805.971277,150.188964 803.628118,151.17158 C801.284958,152.154195 798.866213,152.834467 796.296296,153.287982 C793.726379,153.741497 790.929705,153.892668 787.906274,153.892668 C781.179138,153.892668 775.056689,152.758881 769.387755,150.415722 C763.794407,148.072562 758.88133,144.897959 754.799698,140.740741 C750.718065,136.583522 747.543462,131.59486 745.275888,125.85034 C743.008314,120.030234 741.874528,113.605442 741.874528,106.500378 C741.874528,99.3197279 743.0839,92.5925926 745.502646,86.4701436 C747.921391,80.2721088 751.247166,74.9055178 755.47997,70.3703704 C759.712774,65.7596372 764.701436,62.2071051 770.521542,59.5616024 C776.341648,56.9160998 782.615268,55.6311413 789.493575,55.6311413 C800.604686,55.6311413 809.977324,59.7883598 817.535903,68.1027967 L817.535903,58.2010582 L850.793651,58.2010582 Z M776.417234,104.686319 C776.417234,107.709751 776.946334,110.582011 778.080121,113.227513 C779.213908,115.873016 780.650038,118.14059 782.539683,120.10582 C784.429327,122.071051 786.696901,123.582766 789.342404,124.716553 C791.987906,125.85034 794.78458,126.379441 797.883598,126.379441 C800.831444,126.379441 803.552532,125.85034 806.198035,124.716553 C808.843537,123.582766 811.111111,122.071051 813.000756,120.10582 C814.890401,118.14059 816.402116,115.873016 817.611489,113.227513 C818.745276,110.582011 819.349962,107.860922 819.349962,104.913076 C819.349962,101.889645 818.745276,99.0173847 817.611489,96.5230537 C816.477702,93.9531368 814.890401,91.6855631 812.92517,89.7203326 C810.95994,87.755102 808.692366,86.2433862 806.046863,85.1095994 C803.401361,83.9758125 800.680272,83.446712 797.883598,83.446712 C794.935752,83.446712 792.214664,84.0513983 789.644747,85.1851852 C787.07483,86.318972 784.807256,87.9062736 782.842026,89.7959184 C780.876795,91.6855631 779.365079,93.9531368 778.155707,96.4474679 C777.02192,99.0173847 776.417234,101.738473 776.417234,104.686319 Z" id="Shape"></path>
            <path d="M891.685563,58.2010582 L891.685563,111.111111 C891.685563,122.675737 897.278912,128.495843 908.541194,128.495843 C919.803477,128.495843 925.396825,122.675737 925.396825,111.111111 L925.396825,58.2010582 L958.578987,58.2010582 L958.578987,117.535903 C958.578987,130.234316 954.421769,139.758125 946.031746,146.107332 C937.641723,152.456538 925.170068,155.631141 908.61678,155.631141 C891.987906,155.631141 879.516251,152.456538 871.201814,146.107332 C862.811791,139.758125 858.654573,130.234316 858.654573,117.535903 L858.654573,58.2010582 L891.685563,58.2010582 Z" id="Shape"></path>
            <polygon id="Shape" points="999.470899 0.0755857899 999.470899 152.078609 966.288738 152.078609 966.288738 0.0755857899"></polygon>
            <polygon id="Shape" points="595.842782 14.0589569 560.31746 14.0589569 532.879819 87.6795163 521.768707 58.2010582 502.343159 94.4822373 524.792139 152.078609 539.077853 152.078609 571.655329 72.6379441 583.597884 152.078609 619.274376 152.078609"></polygon>
            <path d="M379.969766,126.606198 C379.969766,126.606198 372.789116,128.873772 364.474679,128.798186 C353.212396,128.873772 339.833711,124.867725 339.833711,105.442177 L339.833711,104.610733 C339.833711,85.1851852 353.13681,81.1791383 364.474679,81.2547241 C372.789116,81.1791383 379.969766,83.446712 379.969766,83.446712 L379.969766,58.2010582 C379.969766,58.2010582 336.659108,42.9327286 314.436886,76.1904762 C312.547241,78.9115646 310.884354,81.9349962 309.52381,85.1851852 C306.802721,91.38322 305.517763,98.3371126 305.517763,105.820106 C305.517763,113.378685 306.953893,120.181406 309.750567,126.303855 C312.39607,132.048375 315.948602,137.112623 320.256992,141.345427 C329.478458,150.793651 340.816327,154.421769 351.095994,155.404384 C351.70068,155.47997 352.229781,155.47997 352.834467,155.555556 C352.834467,155.555556 352.910053,155.555556 352.910053,155.555556 C353.665911,155.631141 354.497354,155.631141 355.253212,155.631141 C355.631141,155.631141 355.933485,155.631141 356.311413,155.631141 C356.462585,155.631141 356.613757,155.631141 356.840514,155.631141 C356.840514,155.631141 356.9161,155.631141 356.9161,155.631141 C369.916856,155.706727 380.120937,152.154195 380.120937,152.154195 L379.969766,126.606198 Z" id="Shape"></path>
        </g>
    </g>
</svg>